<?xml version="1.0" encoding="utf-8"?>
<!-- Generator: Adobe Illustrator 21.0.0, SVG Export Plug-In . SVG Version: 6.00 Build 0)  -->
<svg version="1.1" id="Слой_1" xmlns="http://www.w3.org/2000/svg" xmlns:xlink="http://www.w3.org/1999/xlink" x="0px" y="0px"
	 viewBox="0 0 149 30" style="enable-background:new 0 0 149 30;" xml:space="preserve">
<style type="text/css">
	.st0{fill:#FFFFFF;}
</style>
<g>
	<path class="st0" d="M72.6-0.3H46.3c-6.1,0-8.8,3.8-9.4,7.5v-7.5H22.3c-2,0-3,0.6-4,2l-4,5.9h58.3V-0.3z"/>
	<polygon class="st0" points="-0.2,30.5 10.3,30.5 23.4,9.3 14,8.4 	"/>
	<rect x="74.2" y="-0.3" class="st0" width="8.6" height="7.9"/>
	<path class="st0" d="M137.5,12l-27-1.6c0,4.1,2.7,6.9,7.3,7.3l19.2,1.5c1.5,0.1,2.4,0.5,2.4,1.7c0,1.2-1,1.6-3.2,1.6h-26.2v8h26.7
		c8.4,0,12.1-3,12.1-9.7C149,14.8,145.7,12.5,137.5,12z"/>
	<path class="st0" d="M110.2,10.4l-8.5-0.5V19c0,2.8-1.4,3.7-6.3,3.7h-6.8c-4.1,0-5.8-1.2-5.8-3.7V9.1l-8.6-0.6v11.3H74
		c-0.5-3.3-1.7-7.1-9.9-7.6l-27-1.8c0,4.1,3,6.6,7.6,7.1l18.8,1.9c1.5,0.1,2.6,0.6,2.6,1.8c0,1.4-1.1,1.5-2.8,1.5H36.8V10.2
		l-8.6-0.6v20.8h35.1c7.8,0,10.3-4.1,10.7-7.5h0.2c1,5.4,5.7,7.5,13.6,7.5h8.7c9.3,0,13.7-2.8,13.7-9.5V10.4z"/>
	<path class="st0" d="M148.4,7.6v-7.9h-29c-6,0-8.7,3.7-9.2,7.3c0,0,0,0.1,0,0.1v-7.5h-8.5v7.9h8.5H148.4z"/>
</g>
</svg>
