<svg width="742" height="46" viewBox="0 0 742 46" fill="none" xmlns="http://www.w3.org/2000/svg">
<path d="M41.4 46L14.6 18H31.6V5.20004H10.1V34.4L0.5 24V1.10004H41.3V24H30.4L41.4 35.9V46Z" fill="url(#paint0_linear)"/>
<path d="M59.6 36L48.4 23.4V0.799988H85.9C87.4 0.799988 88.4 2.19999 88.4 3.59999V36H59.6ZM58.9 5.99999V21L67.2 30.7H77.9V5.99999H58.9Z" fill="url(#paint1_linear)"/>
<path d="M134.5 36H94.4V0.799988H136L130.4 6.29999H105V30.8H123.9V14L134.5 25.3V36Z" fill="url(#paint2_linear)"/>
<path d="M195.3 36H152.2L179.3 5.99999H158.3L153 0.799988H195.8L168.9 30.8H190L195.3 36Z" fill="url(#paint3_linear)"/>
<path d="M238.5 36H199.1V0.799988H238.5L233.2 5.99999H209.6V15.6H236.2V21.2H209.6V30.9H233.2L238.5 36Z" fill="url(#paint4_linear)"/>
<path d="M252.7 36H242.1V0.799988H278.5C280 0.799988 280.8 2.19999 281 3.59999V24.8H252.7V36ZM252.6 19.6H270.6V7.59999C270.6 5.99999 269.9 5.99999 269.6 5.99999H252.6V19.6Z" fill="url(#paint5_linear)"/>
<path d="M325.4 36H314.9V21.1H296.6V36H286.2V0.799988H296.6V15.6H314.9V0.799988H325.4V36Z" fill="url(#paint6_linear)"/>
<path d="M353 36H342.5V19.4L326 0.799988H338.1L347.7 11.7L357.3 0.799988H369.4L352.9 19.4V36H353Z" fill="url(#paint7_linear)"/>
<path d="M402.4 36L383.4 14.4L400.7 14.5V7.49999C400.7 7.19999 400.7 5.99999 399.8 5.99999H381.3V36H370.6V0.799988H408.6C410.1 0.799988 411.1 2.49999 411.1 3.99999V20.9H401.6L414.8 36H402.4Z" fill="url(#paint8_linear)"/>
<path d="M458.1 36H418.6V0.799988H429V30.8H447.7V0.799988H458.1V36Z" fill="url(#paint9_linear)"/>
<path d="M504.7 36H470.4L463.8 30.6H494.1V20.9H465.1V0.799988H505.4L500.7 5.99999H475.7V15.6H504.7V36Z" fill="url(#paint10_linear)"/>
<path d="M524 36V0.799988H552.5L563.7 18.4L552.5 36H524ZM545.3 5.99999H534.5V30.7H545.3L553.2 18.4L545.3 5.99999Z" fill="url(#paint11_linear)"/>
<path d="M609.6 36H570.1V0.799988H580.5V30.8H599.3V0.799988H609.7V36H609.6Z" fill="url(#paint12_linear)"/>
<path d="M627.4 36L616.2 23.4V0.799988H653.7C655.2 0.799988 656.2 2.19999 656.2 3.59999V36H627.4ZM626.7 5.99999V21L635 30.7H645.7V5.99999H626.7Z" fill="url(#paint13_linear)"/>
<path d="M692.2 0.200012V31.4L683 40.2V5.00001L674.5 0.200012H692.2Z" fill="url(#paint14_linear)"/>
<path d="M741.5 24.2L732.9 36H700.5L705.5 30.7H726.4L731.1 24.2L726.4 18H702.7V0.799988H741.5L736.1 6.09999H712V12.5H733L741.5 24.2Z" fill="url(#paint15_linear)"/>
<defs>
<linearGradient id="paint0_linear" x1="20.9825" y1="1.09184" x2="20.9825" y2="45.9624" gradientUnits="userSpaceOnUse">
<stop offset="0.0291667" stop-color="#BBBBBB"/>
<stop offset="0.0479167" stop-color="#666666"/>
<stop offset="0.0582891" stop-color="#696969"/>
<stop offset="0.2191" stop-color="#9A9A9A"/>
<stop offset="0.3716" stop-color="#C0C0C0"/>
<stop offset="0.5117" stop-color="#DBDBDB"/>
<stop offset="0.635" stop-color="#ECECEC"/>
<stop offset="0.7285" stop-color="#F2F2F2"/>
<stop offset="0.8299" stop-color="#B3B3B3"/>
<stop offset="0.9479" stop-color="#F2F2F2"/>
<stop offset="0.9833" stop-color="#666666"/>
</linearGradient>
<linearGradient id="paint1_linear" x1="68.408" y1="0.767588" x2="68.408" y2="36" gradientUnits="userSpaceOnUse">
<stop offset="0.0291667" stop-color="#BBBBBB"/>
<stop offset="0.0479167" stop-color="#666666"/>
<stop offset="0.0582891" stop-color="#696969"/>
<stop offset="0.2191" stop-color="#9A9A9A"/>
<stop offset="0.3716" stop-color="#C0C0C0"/>
<stop offset="0.5117" stop-color="#DBDBDB"/>
<stop offset="0.635" stop-color="#ECECEC"/>
<stop offset="0.7285" stop-color="#F2F2F2"/>
<stop offset="0.8299" stop-color="#B3B3B3"/>
<stop offset="0.9479" stop-color="#F2F2F2"/>
<stop offset="0.9833" stop-color="#666666"/>
</linearGradient>
<linearGradient id="paint2_linear" x1="115.225" y1="0.767588" x2="115.225" y2="36" gradientUnits="userSpaceOnUse">
<stop offset="0.0291667" stop-color="#BBBBBB"/>
<stop offset="0.0479167" stop-color="#666666"/>
<stop offset="0.0582891" stop-color="#696969"/>
<stop offset="0.2191" stop-color="#9A9A9A"/>
<stop offset="0.3716" stop-color="#C0C0C0"/>
<stop offset="0.5117" stop-color="#DBDBDB"/>
<stop offset="0.635" stop-color="#ECECEC"/>
<stop offset="0.7285" stop-color="#F2F2F2"/>
<stop offset="0.8299" stop-color="#B3B3B3"/>
<stop offset="0.9479" stop-color="#F2F2F2"/>
<stop offset="0.9833" stop-color="#666666"/>
</linearGradient>
<linearGradient id="paint3_linear" x1="173.99" y1="0.767588" x2="173.99" y2="36" gradientUnits="userSpaceOnUse">
<stop offset="0.0291667" stop-color="#BBBBBB"/>
<stop offset="0.0479167" stop-color="#666666"/>
<stop offset="0.0582891" stop-color="#696969"/>
<stop offset="0.2191" stop-color="#9A9A9A"/>
<stop offset="0.3716" stop-color="#C0C0C0"/>
<stop offset="0.5117" stop-color="#DBDBDB"/>
<stop offset="0.635" stop-color="#ECECEC"/>
<stop offset="0.7285" stop-color="#F2F2F2"/>
<stop offset="0.8299" stop-color="#B3B3B3"/>
<stop offset="0.9479" stop-color="#F2F2F2"/>
<stop offset="0.9833" stop-color="#666666"/>
</linearGradient>
<linearGradient id="paint4_linear" x1="218.824" y1="0.767588" x2="218.824" y2="36" gradientUnits="userSpaceOnUse">
<stop offset="0.0291667" stop-color="#BBBBBB"/>
<stop offset="0.0479167" stop-color="#666666"/>
<stop offset="0.0582891" stop-color="#696969"/>
<stop offset="0.2191" stop-color="#9A9A9A"/>
<stop offset="0.3716" stop-color="#C0C0C0"/>
<stop offset="0.5117" stop-color="#DBDBDB"/>
<stop offset="0.635" stop-color="#ECECEC"/>
<stop offset="0.7285" stop-color="#F2F2F2"/>
<stop offset="0.8299" stop-color="#B3B3B3"/>
<stop offset="0.9479" stop-color="#F2F2F2"/>
<stop offset="0.9833" stop-color="#666666"/>
</linearGradient>
<linearGradient id="paint5_linear" x1="261.551" y1="0.767588" x2="261.551" y2="36" gradientUnits="userSpaceOnUse">
<stop offset="0.0291667" stop-color="#BBBBBB"/>
<stop offset="0.0479167" stop-color="#666666"/>
<stop offset="0.0582891" stop-color="#696969"/>
<stop offset="0.2191" stop-color="#9A9A9A"/>
<stop offset="0.3716" stop-color="#C0C0C0"/>
<stop offset="0.5117" stop-color="#DBDBDB"/>
<stop offset="0.635" stop-color="#ECECEC"/>
<stop offset="0.7285" stop-color="#F2F2F2"/>
<stop offset="0.8299" stop-color="#B3B3B3"/>
<stop offset="0.9479" stop-color="#F2F2F2"/>
<stop offset="0.9833" stop-color="#666666"/>
</linearGradient>
<linearGradient id="paint6_linear" x1="305.776" y1="0.767588" x2="305.776" y2="36" gradientUnits="userSpaceOnUse">
<stop offset="0.0291667" stop-color="#BBBBBB"/>
<stop offset="0.0479167" stop-color="#666666"/>
<stop offset="0.0582891" stop-color="#696969"/>
<stop offset="0.2191" stop-color="#9A9A9A"/>
<stop offset="0.3716" stop-color="#C0C0C0"/>
<stop offset="0.5117" stop-color="#DBDBDB"/>
<stop offset="0.635" stop-color="#ECECEC"/>
<stop offset="0.7285" stop-color="#F2F2F2"/>
<stop offset="0.8299" stop-color="#B3B3B3"/>
<stop offset="0.9479" stop-color="#F2F2F2"/>
<stop offset="0.9833" stop-color="#666666"/>
</linearGradient>
<linearGradient id="paint7_linear" x1="347.774" y1="0.767588" x2="347.774" y2="36" gradientUnits="userSpaceOnUse">
<stop offset="0.0291667" stop-color="#BBBBBB"/>
<stop offset="0.0479167" stop-color="#666666"/>
<stop offset="0.0582891" stop-color="#696969"/>
<stop offset="0.2191" stop-color="#9A9A9A"/>
<stop offset="0.3716" stop-color="#C0C0C0"/>
<stop offset="0.5117" stop-color="#DBDBDB"/>
<stop offset="0.635" stop-color="#ECECEC"/>
<stop offset="0.7285" stop-color="#F2F2F2"/>
<stop offset="0.8299" stop-color="#B3B3B3"/>
<stop offset="0.9479" stop-color="#F2F2F2"/>
<stop offset="0.9833" stop-color="#666666"/>
</linearGradient>
<linearGradient id="paint8_linear" x1="392.729" y1="0.767588" x2="392.729" y2="36" gradientUnits="userSpaceOnUse">
<stop offset="0.0291667" stop-color="#BBBBBB"/>
<stop offset="0.0479167" stop-color="#666666"/>
<stop offset="0.0582891" stop-color="#696969"/>
<stop offset="0.2191" stop-color="#9A9A9A"/>
<stop offset="0.3716" stop-color="#C0C0C0"/>
<stop offset="0.5117" stop-color="#DBDBDB"/>
<stop offset="0.635" stop-color="#ECECEC"/>
<stop offset="0.7285" stop-color="#F2F2F2"/>
<stop offset="0.8299" stop-color="#B3B3B3"/>
<stop offset="0.9479" stop-color="#F2F2F2"/>
<stop offset="0.9833" stop-color="#666666"/>
</linearGradient>
<linearGradient id="paint9_linear" x1="438.331" y1="0.767588" x2="438.331" y2="36" gradientUnits="userSpaceOnUse">
<stop offset="0.0291667" stop-color="#BBBBBB"/>
<stop offset="0.0479167" stop-color="#666666"/>
<stop offset="0.0582891" stop-color="#696969"/>
<stop offset="0.2191" stop-color="#9A9A9A"/>
<stop offset="0.3716" stop-color="#C0C0C0"/>
<stop offset="0.5117" stop-color="#DBDBDB"/>
<stop offset="0.635" stop-color="#ECECEC"/>
<stop offset="0.7285" stop-color="#F2F2F2"/>
<stop offset="0.8299" stop-color="#B3B3B3"/>
<stop offset="0.9479" stop-color="#F2F2F2"/>
<stop offset="0.9833" stop-color="#666666"/>
</linearGradient>
<linearGradient id="paint10_linear" x1="484.621" y1="0.767588" x2="484.621" y2="36" gradientUnits="userSpaceOnUse">
<stop offset="0.0291667" stop-color="#BBBBBB"/>
<stop offset="0.0479167" stop-color="#666666"/>
<stop offset="0.0582891" stop-color="#696969"/>
<stop offset="0.2191" stop-color="#9A9A9A"/>
<stop offset="0.3716" stop-color="#C0C0C0"/>
<stop offset="0.5117" stop-color="#DBDBDB"/>
<stop offset="0.635" stop-color="#ECECEC"/>
<stop offset="0.7285" stop-color="#F2F2F2"/>
<stop offset="0.8299" stop-color="#B3B3B3"/>
<stop offset="0.9479" stop-color="#F2F2F2"/>
<stop offset="0.9833" stop-color="#666666"/>
</linearGradient>
<linearGradient id="paint11_linear" x1="543.871" y1="0.767588" x2="543.871" y2="36" gradientUnits="userSpaceOnUse">
<stop offset="0.0291667" stop-color="#BBBBBB"/>
<stop offset="0.0479167" stop-color="#666666"/>
<stop offset="0.0582891" stop-color="#696969"/>
<stop offset="0.2191" stop-color="#9A9A9A"/>
<stop offset="0.3716" stop-color="#C0C0C0"/>
<stop offset="0.5117" stop-color="#DBDBDB"/>
<stop offset="0.635" stop-color="#ECECEC"/>
<stop offset="0.7285" stop-color="#F2F2F2"/>
<stop offset="0.8299" stop-color="#B3B3B3"/>
<stop offset="0.9479" stop-color="#F2F2F2"/>
<stop offset="0.9833" stop-color="#666666"/>
</linearGradient>
<linearGradient id="paint12_linear" x1="589.799" y1="0.767588" x2="589.799" y2="36" gradientUnits="userSpaceOnUse">
<stop offset="0.0291667" stop-color="#BBBBBB"/>
<stop offset="0.0479167" stop-color="#666666"/>
<stop offset="0.0582891" stop-color="#696969"/>
<stop offset="0.2191" stop-color="#9A9A9A"/>
<stop offset="0.3716" stop-color="#C0C0C0"/>
<stop offset="0.5117" stop-color="#DBDBDB"/>
<stop offset="0.635" stop-color="#ECECEC"/>
<stop offset="0.7285" stop-color="#F2F2F2"/>
<stop offset="0.8299" stop-color="#B3B3B3"/>
<stop offset="0.9479" stop-color="#F2F2F2"/>
<stop offset="0.9833" stop-color="#666666"/>
</linearGradient>
<linearGradient id="paint13_linear" x1="636.21" y1="0.767588" x2="636.21" y2="36" gradientUnits="userSpaceOnUse">
<stop offset="0.0291667" stop-color="#BBBBBB"/>
<stop offset="0.0479167" stop-color="#666666"/>
<stop offset="0.0582891" stop-color="#696969"/>
<stop offset="0.2191" stop-color="#9A9A9A"/>
<stop offset="0.3716" stop-color="#C0C0C0"/>
<stop offset="0.5117" stop-color="#DBDBDB"/>
<stop offset="0.635" stop-color="#ECECEC"/>
<stop offset="0.7285" stop-color="#F2F2F2"/>
<stop offset="0.8299" stop-color="#B3B3B3"/>
<stop offset="0.9479" stop-color="#F2F2F2"/>
<stop offset="0.9833" stop-color="#666666"/>
</linearGradient>
<linearGradient id="paint14_linear" x1="683.352" y1="0.200712" x2="683.352" y2="40.2119" gradientUnits="userSpaceOnUse">
<stop offset="0.0291667" stop-color="#BBBBBB"/>
<stop offset="0.0479167" stop-color="#666666"/>
<stop offset="0.0582891" stop-color="#696969"/>
<stop offset="0.2191" stop-color="#9A9A9A"/>
<stop offset="0.3716" stop-color="#C0C0C0"/>
<stop offset="0.5117" stop-color="#DBDBDB"/>
<stop offset="0.635" stop-color="#ECECEC"/>
<stop offset="0.7285" stop-color="#F2F2F2"/>
<stop offset="0.8299" stop-color="#B3B3B3"/>
<stop offset="0.9479" stop-color="#F2F2F2"/>
<stop offset="0.9833" stop-color="#666666"/>
</linearGradient>
<linearGradient id="paint15_linear" x1="721.015" y1="0.767588" x2="721.015" y2="36" gradientUnits="userSpaceOnUse">
<stop offset="0.0291667" stop-color="#BBBBBB"/>
<stop offset="0.0479167" stop-color="#666666"/>
<stop offset="0.0582891" stop-color="#696969"/>
<stop offset="0.2191" stop-color="#9A9A9A"/>
<stop offset="0.3716" stop-color="#C0C0C0"/>
<stop offset="0.5117" stop-color="#DBDBDB"/>
<stop offset="0.635" stop-color="#ECECEC"/>
<stop offset="0.7285" stop-color="#F2F2F2"/>
<stop offset="0.8299" stop-color="#B3B3B3"/>
<stop offset="0.9479" stop-color="#F2F2F2"/>
<stop offset="0.9833" stop-color="#666666"/>
</linearGradient>
</defs>
</svg>
